<svg width="54" height="22" viewBox="0 0 54 22" fill="none" xmlns="http://www.w3.org/2000/svg">
<!-- <g id="smm">
<g id="Group">
<path id="Vector" d="M32 7C32 1.21739 38.1538 1 43 1C47.8462 1 53 1.21739 53 7C53 13.6087 47 6 47 6H38C38 6 32 13.6087 32 7ZM38 8C38 8 34 12.5652 34 20H51C51 12.5652 47 8 47 8H38Z" stroke="black" stroke-width="1.75" stroke-linecap="round" stroke-linejoin="round"/>
<path id="Vector_2" d="M42 18C43.6569 18 45 16.933 45 15C45 13.067 43.6569 11 42 11C40.3431 11 39 13.067 39 15C39 16.933 40.3431 18 42 18Z" stroke="black" stroke-width="1.75" stroke-linecap="round" stroke-linejoin="round"/>
</g> -->
<g id="Group_2">
<g id="Vector_3">
<path fill-rule="evenodd" clip-rule="evenodd" d="M5 1C3.76232 1 1.87517 1.12483 1 2C0.12483 2.87517 0 4.76232 0 6V17C0 18.2377 0.12483 20.1248 1 21C1.87517 21.8752 3.76232 22 5 22H16C17.2377 22 19.1248 21.8752 20 21C20.8752 20.1248 21 18.2377 21 17V6C21 4.76232 20.8752 2.87517 20 2C19.1248 1.12483 17.2377 1 16 1H5ZM17 9C17.1717 8.74256 17.0606 8.30346 17 8C16.9394 7.69654 16.2574 8.17173 16 8C15.7426 7.82827 16.3035 6.93939 16 7C15.6965 7.06061 15.1717 7.74256 15 8C14.587 8.54833 13.5063 8.53333 13 9C12.4132 9.54133 12.5787 10.7597 12 11V8C11.9666 7.71621 11.2135 8.18989 11 8C10.7865 7.81011 11.2858 7.00004 11 7C10.3677 7.03617 9 8.33617 9 9V14C6.72733 13.37 6 11.2668 6 9C6 8.69058 5.21879 8.21879 5 8C4.78121 7.78121 5.30942 7 5 7C4.69058 7 4.21879 7.78121 4 8C3.78121 8.21879 4 8.69058 4 9C4 13.2373 6.92833 16 11 16C10.7812 16.2188 11.3094 16 11 16C11.2188 15.7812 12 15.3094 12 15V13C13.554 13.1237 14.4377 14.8765 15 16C15.0655 16.1418 15.8844 15.8949 16 16C15.8526 15.9483 16.1156 16.1051 16 16C15.8441 16.0099 16.1474 16.0517 16 16C16.1559 15.9901 16.8603 16.0699 17 16C16.8985 16.1188 17.1397 15.9301 17 16C17.1015 15.8812 16.9529 15.149 17 15C17.0471 14.851 18.0147 15.1556 18 15C17.9853 14.8444 17.0742 14.1375 17 14C16.4423 12.8835 15.281 12.6813 14 12C14.1727 11.8588 14.8308 11.1552 15 11C15.6428 10.4138 16.5063 9.71623 17 9Z" fill="black"/>
<!-- </g> -->
</g>
</g>
</svg>
